<svg width="326" height="128" viewBox="0 0 326 128" fill="none" xmlns="http://www.w3.org/2000/svg">
<rect x="123.5" y="0.5" width="79" height="79" rx="39.5" fill="#FFF5F0"/>
<rect x="123.5" y="0.5" width="79" height="79" rx="39.5" stroke="#333333"/>
<mask id="mask0_57_6983" style="mask-type:luminance" maskUnits="userSpaceOnUse" x="134" y="11" width="58" height="58">
<path d="M191.238 11.875H134.871V68.242H191.238V11.875Z" fill="white"/>
</mask>
<g mask="url(#mask0_57_6983)">
<path d="M164.209 18.7531C165.82 18.8106 167.43 19.0982 169.041 19.6158C171.292 20.2514 173.298 21.555 174.793 23.3545C175.885 24.7924 176.576 26.5179 176.806 28.3009C177.116 30.2224 177.155 32.178 176.921 34.1102L176.633 36.0658L176.403 37.2161C176.345 37.3312 176.345 37.3312 176.23 37.3312C176.115 37.1011 176.115 36.871 176.115 36.641C176.058 35.7782 176.173 34.9729 176.23 34.1102C176.288 32.7298 176.403 31.3494 176.288 29.9689L175.943 27.3807C175.54 25.7702 174.793 24.2747 173.642 23.0669C172.607 22.0316 171.341 21.1688 170.019 20.5936C168.753 20.076 167.488 19.7309 166.165 19.5008C165.13 19.3282 164.094 19.2707 163.059 19.2707C160.507 19.2289 157.982 19.801 155.697 20.9387C154.949 21.4564 154.259 22.0891 153.684 22.7793C151.914 25.1025 150.819 27.869 150.52 30.7742C150.463 32.1546 150.52 33.4775 150.98 34.8004L151.383 35.6632L152.073 35.7207L152.131 35.8932C151.958 36.0083 151.728 36.0083 151.498 36.0658C150.923 36.1808 150.348 36.4109 149.83 36.756C149.427 37.0436 149.025 37.3887 148.795 37.8488C148.507 38.424 148.622 39.1142 148.737 39.7469C149.025 40.8397 149.715 41.875 150.635 42.5652C151.268 43.0829 152.073 43.3705 152.878 43.4855C153.454 43.6005 154.029 43.4855 154.604 43.428C154.892 43.6581 155.064 44.1182 155.237 44.4058L156.272 45.9588C157.208 47.2886 158.535 48.2939 160.068 48.8346C161.333 49.3523 162.656 49.6399 163.979 49.9274L166.337 50.3876L167.315 50.6752V50.9052H166.625C165.332 50.8331 164.045 50.6794 162.771 50.4451C161.061 50.1047 159.425 49.4619 157.94 48.547C157.307 48.1444 156.732 47.6268 156.272 46.9941C156.67 49.3914 156.35 51.853 155.352 54.0687C154.489 55.6217 153.051 56.8295 151.325 57.3472C151.153 57.4047 150.923 57.4622 150.75 57.4047C150.635 57.4047 150.635 57.3472 150.635 57.2321C150.693 57.0596 150.865 56.9446 150.98 56.887C151.671 56.4269 152.476 56.0818 153.166 55.5641C153.914 54.9315 154.546 54.2412 154.949 53.3785C155.294 52.5157 155.524 51.5379 155.639 50.5601C155.754 49.8124 155.812 49.0647 155.754 48.2594L155.524 46.0738L154.489 44.0032L153.396 44.2332C152.552 44.2578 151.715 44.0707 150.961 43.6889C150.208 43.3072 149.562 42.7429 149.082 42.0476C148.333 41.0977 147.927 39.9217 147.932 38.7116C147.932 38.1939 148.104 37.6763 148.392 37.2736C148.68 36.871 149.082 36.5259 149.485 36.2958C149.772 36.0658 150.175 35.9507 150.52 35.8357L150.003 34.4553C149.715 33.1899 149.715 31.867 149.888 30.6016C150.264 27.4607 151.52 24.49 153.511 22.0316C154.029 21.4564 154.546 20.9387 155.179 20.5361C155.582 20.306 155.984 20.2485 156.329 20.0184C158.803 18.9256 161.506 18.5805 164.209 18.7531Z" fill="#262626"/>
<path d="M163.058 19.2692C165.448 19.1803 167.827 19.6325 170.018 20.5921C171.341 21.1672 172.606 22.03 173.641 23.0653C174.792 24.2732 175.54 25.7686 175.942 27.3791L176.287 29.9674C176.402 31.3478 176.287 32.7282 176.23 34.1086C176.172 34.9714 176.057 35.7766 176.115 36.6394C176.115 36.8695 176.115 37.0995 176.23 37.3296L176.172 38.4799C176.057 38.7675 176.057 39.0551 176.057 39.4002C175.942 40.7806 175.942 42.2186 175.712 43.6565C175.655 44.3467 175.54 45.0944 175.252 45.7271C175.079 46.2448 174.792 46.7049 174.389 47.1075C173.699 47.8553 172.836 48.4879 171.916 49.0056C170.823 49.6383 169.673 49.9259 168.58 50.386C168.292 50.5011 168.005 50.6161 167.832 50.8462C168.292 50.9037 168.695 50.8462 169.155 50.7311C168.868 51.4213 168.81 52.1115 168.81 52.8017C168.81 53.0893 168.753 53.4344 168.868 53.722C169.04 54.0096 169.328 54.2397 169.615 54.4122L171.628 55.16C172.894 55.6201 174.102 56.1953 175.367 56.7129C175.482 56.943 175.655 57.1155 175.712 57.4031C176.057 58.0358 176.115 58.726 175.885 59.4162C175.597 60.164 175.022 60.7966 174.332 61.1993C173.411 61.832 172.261 62.2921 171.168 62.5797C166.696 63.5352 162.059 63.3971 157.652 62.1771C156.501 61.7744 155.351 61.3718 154.316 60.7966C153.51 60.3365 152.648 59.7613 152.015 59.0136C151.67 58.5535 151.382 57.9208 151.325 57.3456C152.672 56.9345 153.864 56.1278 154.746 55.0302C155.628 53.9326 156.159 52.595 156.271 51.1913C156.501 49.8108 156.501 48.3729 156.271 46.9925C156.731 47.6252 157.307 48.1428 157.939 48.5455L159.492 49.3507C161.747 50.3235 164.169 50.8509 166.624 50.9037H167.315V50.6736L166.337 50.386L163.979 49.9259C162.656 49.6383 161.333 49.3507 160.067 48.833C159.32 48.4879 158.514 48.0853 157.824 47.6252C157.249 47.1075 156.731 46.5899 156.271 45.9572L155.236 44.4042C155.063 44.1166 154.891 43.6565 154.603 43.4264C154.028 43.4839 153.453 43.599 152.878 43.4839C152.073 43.3689 151.267 43.0813 150.635 42.5637C149.715 41.8526 149.05 40.8643 148.737 39.7453C148.621 39.1126 148.506 38.4224 148.794 37.8472C149.024 37.3871 149.427 37.042 149.829 36.7544C150.347 36.4093 150.922 36.1792 151.497 36.0642C151.727 36.0067 151.957 36.0067 152.13 35.8917L152.073 35.7191L151.382 35.6616L150.98 34.7988C150.52 33.4759 150.462 32.153 150.577 30.7726C150.859 27.8731 151.934 25.1072 153.683 22.7777C154.258 22.0875 154.948 21.4548 155.696 20.9372C157.976 19.7795 160.501 19.1877 163.058 19.2116V19.2692Z" fill="#FFDECC"/>
<path d="M150.694 38.1406C150.924 38.1406 151.096 38.1406 151.326 38.2557C151.614 38.3132 151.959 38.4857 152.132 38.7158C152.247 38.8884 152.247 39.1184 152.132 39.291C151.844 39.6361 151.441 39.8661 151.211 40.2112C151.556 40.4413 152.017 40.5564 152.419 40.7289C152.649 40.7864 152.879 40.9015 153.052 41.074L153.109 41.2466L152.649 41.1315L151.269 40.7289C151.039 40.6714 150.809 40.5564 150.751 40.3263C150.694 40.1537 150.809 39.9237 150.924 39.7511L151.786 39.0034C151.556 38.6008 150.924 38.5432 150.694 38.1406ZM176.174 38.4857L176.289 38.6583L176.404 39.5786C176.523 41.2848 176.485 42.9984 176.289 44.6976C176.174 45.3303 176.001 46.0205 175.714 46.5957C174.188 48.5923 172.044 50.0281 169.617 50.6794C169.559 51.4846 169.444 52.4624 169.502 53.3827L169.789 53.6703C170.249 54.0154 170.825 54.188 171.342 54.3605C172.688 54.79 173.996 55.3286 175.253 55.971C175.656 56.2011 176.001 56.4886 176.289 56.8337C176.001 56.8913 175.714 56.7762 175.369 56.7187C174.103 56.2011 172.895 55.6259 171.63 55.1657L169.617 54.418C169.329 54.2455 169.042 54.0154 168.869 53.7278C168.754 53.4402 168.812 53.0951 168.812 52.8075C168.812 52.1173 168.869 51.4271 169.157 50.7369C168.697 50.852 168.294 50.9095 167.834 50.852C168.006 50.6219 168.294 50.5068 168.581 50.3918C169.674 49.9317 170.825 49.6441 171.917 49.0114C172.838 48.4937 173.701 47.8611 174.391 47.1133C174.793 46.7107 175.081 46.2506 175.253 45.7329C175.541 45.1002 175.656 44.3525 175.714 43.6623C175.944 42.2244 175.944 40.7864 176.059 39.406C176.059 39.0609 176.059 38.7733 176.174 38.4857Z" fill="#262626"/>
<path d="M175.598 34.625L175.483 35.0276C175.31 35.3152 175.138 35.5453 174.85 35.7178C174.562 35.8904 174.217 35.9479 173.872 36.0054L172.837 36.1205C172.549 36.1205 172.377 36.293 172.262 36.4656L171.859 36.8682C171.744 36.9257 171.571 36.8107 171.629 36.6956C171.687 36.2355 172.032 35.8904 172.262 35.5453C172.434 35.3727 172.664 35.1427 172.952 35.1427L174.677 34.8551C174.965 34.7976 175.253 34.625 175.598 34.625ZM158.055 34.8551C158.745 34.7976 159.263 35.0276 159.895 35.0851C160.758 35.2002 161.621 35.3152 162.484 35.3152L163.864 35.4302C164.324 35.4878 164.842 35.4302 165.245 35.6603C165.647 35.8904 165.935 36.2355 166.165 36.5806C166.222 36.6956 166.28 36.8107 166.165 36.9832C166.107 37.0407 165.992 36.9832 165.935 36.9257C165.705 36.8107 165.532 36.5806 165.302 36.5231L164.612 36.4656L163.001 36.408L161.736 36.3505C161.161 36.293 160.586 36.293 160.011 36.0629C159.608 35.9479 159.32 35.7178 158.918 35.5453L158.227 35.0276C158.112 34.9701 158.055 34.9701 158.055 34.8551Z" fill="#262626"/>
<path d="M164.669 27.9549C165.071 27.9549 165.474 28.0699 165.762 28.3C165.992 28.415 166.164 28.53 166.222 28.7601C166.279 28.8751 166.222 29.0477 166.107 29.1052C165.819 29.1627 165.532 28.9902 165.302 28.9327L164.784 28.8751C164.036 28.8176 163.288 28.9327 162.541 29.1052C161.282 29.4613 160.108 30.0678 159.09 30.8882C158.86 31.0033 158.572 31.1758 158.284 31.1183C158.112 31.1183 158.112 30.8882 158.169 30.7157C158.227 30.3706 158.572 30.083 158.86 29.7954C159.435 29.2778 160.183 28.9327 160.873 28.6451C162.023 28.1274 163.403 27.8398 164.669 27.9549ZM173.642 28.0699C174.044 27.9549 174.447 28.0124 174.792 28.2425C175.022 28.415 175.252 28.5876 175.31 28.8751C175.367 29.0477 175.367 29.2202 175.195 29.2778C175.022 29.3353 174.792 29.3353 174.619 29.2202C174.332 29.0477 174.102 28.8751 173.757 28.8751C173.469 28.8751 173.181 28.9327 172.951 29.0477C172.491 29.2778 172.031 29.6804 171.801 30.1405L171.456 30.6582H171.283V30.3131C171.398 29.8529 171.686 29.3928 172.031 29.0477C172.434 28.5876 173.009 28.1849 173.642 28.0699Z" fill="#262626"/>
<path d="M148.162 38.0248C148.449 38.0248 148.737 37.9673 148.967 38.1399C149.14 38.2549 149.255 38.4274 149.197 38.6575C149.082 38.8876 148.852 39.0601 148.564 39.0601H147.644C147.357 39.0026 147.127 38.8876 147.012 38.6575C146.954 38.4274 147.127 38.2549 147.299 38.1399C147.587 38.0248 147.874 38.0823 148.162 38.0248ZM148.91 39.3477C149.082 39.4052 149.312 39.5203 149.312 39.7503C149.312 39.9229 149.255 40.0955 149.082 40.153C148.795 40.383 148.449 40.383 148.104 40.4981C147.817 40.5556 147.529 40.6131 147.299 40.4406C147.069 40.268 147.127 39.9229 147.299 39.7503C147.529 39.5203 147.759 39.5203 148.047 39.4628C148.334 39.4052 148.622 39.2902 148.91 39.3477ZM153.051 42.3386H153.511C153.684 42.3961 153.856 42.5687 153.856 42.7988C153.856 43.0864 153.626 43.3164 153.338 43.3739C153.051 43.489 152.821 43.2589 152.706 43.0288C152.648 42.7412 152.763 42.3961 153.051 42.3386Z" fill="#262626"/>
<path d="M170.651 40.1484C170.651 40.321 170.536 40.4935 170.421 40.6661C170.191 41.0112 169.788 41.2413 169.386 41.3563C169.098 41.4138 168.868 41.2413 168.638 41.3563C168.408 41.3563 168.178 41.4138 167.948 41.2988C167.833 41.2413 167.833 41.0687 167.948 40.9537C168.12 40.7236 168.408 40.5511 168.638 40.5511C168.868 40.4935 169.041 40.4935 169.213 40.6661L169.271 41.0687C169.558 40.9537 169.673 40.7811 169.903 40.6086L170.651 40.1484Z" fill="#262626"/>
<path d="M177.092 38.9461C177.61 38.9461 178.07 39.1762 178.358 39.5788C178.492 39.7555 178.59 39.9572 178.645 40.1721C178.701 40.387 178.713 40.6108 178.681 40.8305C178.649 41.0501 178.573 41.2611 178.458 41.4511C178.344 41.6411 178.192 41.8063 178.013 41.937C178.473 42.0521 178.933 42.3397 179.278 42.6848C179.796 43.3175 180.198 44.1802 180.141 45.043C180.083 45.5031 179.911 45.9057 179.681 46.2508C179.221 46.9986 178.473 47.5162 177.668 47.8613L178.128 48.379C178.3 48.7816 178.358 49.1842 178.358 49.6444C178.3 50.3346 178.013 51.0248 177.495 51.5424C176.901 52.1105 176.129 52.4559 175.309 52.5202C174.734 52.5777 174.101 52.5777 173.526 52.4052C173.469 52.8078 173.354 53.268 173.181 53.6706C172.794 54.3541 172.177 54.8788 171.441 55.1524C170.704 55.426 169.895 55.4308 169.155 55.166C168.465 54.8784 167.89 54.3608 167.545 53.7856C166.682 54.3033 165.761 54.4758 164.784 54.4758C163.978 54.5333 163.001 54.4758 162.31 54.0732C161.85 53.9006 161.563 53.5555 161.275 53.2104C161.103 53.0379 160.988 52.8653 160.93 52.5777C160.297 53.0954 159.435 53.2104 158.687 53.0954C158.112 52.9228 157.594 52.6353 157.306 52.1176C157.019 51.7725 156.961 51.2548 156.961 50.7947H156.156C155.696 50.7372 155.236 50.5071 154.833 50.2195C154.2 49.6444 153.683 48.8966 153.338 48.0914C153.223 47.7463 153.108 47.4012 153.108 46.9986C153.108 46.3659 153.338 45.7332 153.74 45.2155C153.568 44.8129 153.51 44.4103 153.625 44.0077C153.798 43.3175 154.316 42.7423 154.891 42.3972C155.408 42.0521 156.041 41.937 156.674 41.9946C156.789 41.6495 156.961 41.4194 157.249 41.1893C157.882 40.6141 158.687 40.269 159.55 40.269C160.125 40.269 160.642 40.3266 161.103 40.5566C161.333 40.2115 161.62 40.039 161.965 39.9239C162.598 39.6364 163.288 39.6939 163.921 39.9815C165.014 40.3841 165.877 41.0168 166.912 41.4194C167.199 41.6495 167.602 41.5919 168.005 41.6495C168.407 41.707 168.81 41.6495 169.213 41.5919C169.385 41.5344 169.615 41.5344 169.73 41.4194L170.823 40.8442L171.973 39.9815C172.433 39.6939 173.009 39.4063 173.584 39.4638C173.814 39.5213 173.986 39.6364 174.101 39.8089C174.989 39.2279 176.031 38.9274 177.092 38.9461Z" fill="#262626"/>
<path d="M163.232 44.2882C163.405 44.2307 163.52 44.2882 163.52 44.4032C163.52 44.5758 163.347 44.7483 163.175 44.8058C163.002 44.6333 163.06 44.4032 163.232 44.2882ZM164.67 44.9784L166.741 45.381L168.466 45.4961C168.869 45.5536 169.214 45.4961 169.559 45.6111C169.502 45.7261 169.387 45.7836 169.214 45.8412C167.788 46.0658 166.329 45.9475 164.958 45.4961C164.785 45.4385 164.555 45.3235 164.498 45.1509C164.44 45.0359 164.555 44.9209 164.67 44.9784Z" fill="#FFDECC"/>
<path d="M162.945 18.0063C164.569 18.0095 166.188 18.183 167.776 18.524C168.409 18.6965 168.984 18.8116 169.559 19.0416L171.572 19.7893C172.147 19.9619 172.665 20.307 173.24 20.5371L174.16 20.8822L175.828 21.2273C176.116 21.3423 176.346 21.5149 176.461 21.8025C176.634 22.1476 176.576 22.4927 176.461 22.8378L177.036 23.1254C177.324 23.4129 177.439 23.8156 177.324 24.2182C177.209 24.4483 176.979 24.6208 176.749 24.7358C175.525 25.3635 174.115 25.527 172.78 25.196L170.249 24.6208L166.683 23.643C163.634 22.6 160.316 22.661 157.308 23.8156L157.078 24.6208C156.848 25.5411 156.675 26.4614 156.618 27.3816V28.3594L156.56 28.8196C156.388 29.2222 156.042 29.6248 155.812 30.0274C155.122 31.0627 154.49 32.1556 153.972 33.2484L153.857 34.0536V36.2968C153.857 36.5844 153.972 36.8145 153.799 37.0445C152.937 36.9295 152.074 36.6994 151.153 36.4694C151.038 36.4694 150.866 36.4694 150.751 36.3543L150.348 35.8367C150.118 35.6641 150.061 35.319 149.946 35.0314C149.543 33.8236 149.428 32.4432 149.428 31.1203C149.428 29.5098 149.716 27.9568 150.003 26.4038C150.233 25.5411 150.578 24.7358 150.981 23.9881C151.556 22.8378 152.361 21.86 153.282 20.9972C154.202 20.0769 155.295 19.4442 156.503 18.9841C158.568 18.2493 160.754 17.9173 162.945 18.0063ZM152.304 37.0445C152.879 37.0445 153.454 37.2171 153.972 37.3321C154.202 37.3896 154.49 37.5047 154.662 37.6772C154.835 37.7923 154.777 38.0223 154.605 38.0799C154.087 38.2524 153.684 38.0799 153.224 37.9648C152.879 37.8498 152.419 37.7348 152.074 37.5047C151.959 37.4472 151.786 37.2746 151.901 37.1596C152.016 37.0445 152.189 37.0445 152.304 37.0445ZM177.439 43.7741C177.496 43.8891 177.496 43.9466 177.381 44.0617L177.439 43.7741Z" fill="#262626"/>
</g>
<path d="M124.023 119V116.096H128.319C129.407 116.096 130.359 115.872 131.175 115.424C131.991 114.96 132.623 114.312 133.071 113.48C133.535 112.648 133.767 111.664 133.767 110.528C133.767 109.424 133.535 108.464 133.071 107.648C132.607 106.816 131.967 106.176 131.151 105.728C130.335 105.264 129.391 105.032 128.319 105.032H123.951V102.128H128.367C129.615 102.128 130.767 102.336 131.823 102.752C132.895 103.168 133.823 103.76 134.607 104.528C135.407 105.28 136.023 106.168 136.455 107.192C136.903 108.216 137.127 109.336 137.127 110.552C137.127 111.768 136.903 112.896 136.455 113.936C136.023 114.96 135.415 115.856 134.631 116.624C133.847 117.376 132.919 117.96 131.847 118.376C130.791 118.792 129.647 119 128.415 119H124.023ZM121.791 119V102.128H125.055V119H121.791ZM144.232 119.24C143.176 119.24 142.224 118.976 141.376 118.448C140.528 117.92 139.864 117.2 139.384 116.288C138.904 115.376 138.664 114.352 138.664 113.216C138.664 112.064 138.904 111.032 139.384 110.12C139.864 109.208 140.528 108.488 141.376 107.96C142.224 107.432 143.176 107.168 144.232 107.168C145.064 107.168 145.808 107.336 146.464 107.672C147.12 108.008 147.64 108.48 148.024 109.088C148.424 109.68 148.64 110.352 148.672 111.104V115.28C148.64 116.048 148.424 116.728 148.024 117.32C147.64 117.912 147.12 118.384 146.464 118.736C145.808 119.072 145.064 119.24 144.232 119.24ZM144.808 116.336C145.688 116.336 146.4 116.048 146.944 115.472C147.488 114.88 147.76 114.12 147.76 113.192C147.76 112.584 147.632 112.048 147.376 111.584C147.136 111.104 146.792 110.736 146.344 110.48C145.912 110.208 145.4 110.072 144.808 110.072C144.232 110.072 143.72 110.208 143.272 110.48C142.84 110.736 142.496 111.104 142.24 111.584C142 112.048 141.88 112.584 141.88 113.192C141.88 113.816 142 114.368 142.24 114.848C142.496 115.312 142.84 115.68 143.272 115.952C143.72 116.208 144.232 116.336 144.808 116.336ZM147.592 119V115.88L148.096 113.048L147.592 110.264V107.408H150.712V119H147.592ZM157.262 119L152.15 107.408H155.606L159.278 116.96H157.574L161.27 107.408H164.606L159.518 119H157.262ZM166.056 119V107.408H169.224V119H166.056ZM167.64 105.536C167.128 105.536 166.704 105.368 166.368 105.032C166.032 104.68 165.864 104.248 165.864 103.736C165.864 103.24 166.032 102.816 166.368 102.464C166.704 102.112 167.128 101.936 167.64 101.936C168.168 101.936 168.592 102.112 168.912 102.464C169.248 102.816 169.416 103.24 169.416 103.736C169.416 104.248 169.248 104.68 168.912 105.032C168.592 105.368 168.168 105.536 167.64 105.536ZM176.905 119.24C175.833 119.24 174.873 118.976 174.025 118.448C173.177 117.92 172.505 117.2 172.009 116.288C171.529 115.376 171.289 114.352 171.289 113.216C171.289 112.064 171.529 111.032 172.009 110.12C172.505 109.208 173.169 108.488 174.001 107.96C174.849 107.432 175.817 107.168 176.905 107.168C177.737 107.168 178.481 107.336 179.137 107.672C179.809 108.008 180.345 108.48 180.745 109.088C181.161 109.68 181.385 110.352 181.417 111.104V115.232C181.385 115.984 181.169 116.664 180.769 117.272C180.369 117.88 179.833 118.36 179.161 118.712C178.489 119.064 177.737 119.24 176.905 119.24ZM177.433 116.336C178.025 116.336 178.537 116.208 178.969 115.952C179.417 115.68 179.761 115.312 180.001 114.848C180.257 114.368 180.385 113.816 180.385 113.192C180.385 112.584 180.257 112.048 180.001 111.584C179.761 111.104 179.417 110.736 178.969 110.48C178.537 110.208 178.033 110.072 177.457 110.072C176.865 110.072 176.345 110.208 175.897 110.48C175.465 110.752 175.121 111.12 174.865 111.584C174.625 112.048 174.505 112.584 174.505 113.192C174.505 113.816 174.625 114.368 174.865 114.848C175.121 115.312 175.473 115.68 175.921 115.952C176.369 116.208 176.873 116.336 177.433 116.336ZM183.337 119H180.217V115.88L180.721 113.048L180.193 110.264V101.648H183.337V119ZM201.342 119L194.022 110.192L201.15 102.128H205.23L197.286 110.888L197.31 109.376L205.494 119H201.342ZM191.142 119V102.128H194.406V119H191.142Z" fill="#333333"/>
</svg>
