<svg width="326" height="128" viewBox="0 0 326 128" fill="none" xmlns="http://www.w3.org/2000/svg">
<rect x="123.167" y="0.5" width="79" height="79" rx="39.5" fill="#FFF5F0"/>
<rect x="123.167" y="0.5" width="79" height="79" rx="39.5" stroke="#333333"/>
<mask id="mask0_57_6956" style="mask-type:luminance" maskUnits="userSpaceOnUse" x="134" y="11" width="57" height="58">
<path d="M190.795 11.875H134.428V68.242H190.795V11.875Z" fill="white"/>
</mask>
<g mask="url(#mask0_57_6956)">
<path fill-rule="evenodd" clip-rule="evenodd" d="M166.79 15.1425C166.445 14.5674 165.927 14.0497 165.18 13.9922L165.41 14.3373L165.525 14.5674L165.927 15.3151L166.042 15.4301C166.33 16.1203 166.502 16.8105 166.56 17.5583C166.56 17.9609 166.445 18.306 166.33 18.7086C166.157 17.7308 165.64 16.9831 165.064 16.2929C164.454 15.668 163.705 15.1951 162.879 14.9125C161.746 14.4621 160.503 14.362 159.313 14.6249C158.853 14.6824 158.45 14.9125 157.99 15.1425C157.587 15.3726 157.242 15.7177 156.897 16.0053C156.062 16.8359 155.414 17.8362 154.999 18.9387C154.654 19.8014 154.251 20.6642 153.734 21.4694C153.331 22.1596 152.756 22.7923 152.181 23.31L150.57 24.4028C149.624 24.9977 148.703 25.631 147.809 26.3009C146.486 27.4512 145.509 29.0042 144.991 30.7297C144.761 31.5925 144.588 32.5128 144.703 33.3755C144.818 33.8357 144.933 34.2383 145.164 34.6409V35.101C144.933 36.1939 144.876 37.3442 145.221 38.437C145.6 39.7272 146.246 40.9228 147.119 41.9456L147.924 43.0384C148.269 43.6136 148.557 44.2463 148.615 44.9365C148.615 45.4542 148.442 45.9143 148.039 46.2594C147.73 46.5313 147.351 46.7127 146.946 46.7838C146.54 46.8548 146.122 46.8127 145.739 46.662L145.451 46.4895L145.221 46.3744L145.164 46.4895C145.106 46.547 145.048 46.662 145.106 46.7771L145.509 47.5248C145.854 47.9849 146.256 48.33 146.774 48.5601C147.177 48.7902 147.637 48.8477 148.097 48.7326C148.384 48.6751 148.615 48.5601 148.845 48.3875C148.845 48.9627 149.017 49.5379 149.19 50.0555C149.42 50.6882 149.765 51.3209 150.283 51.7811C150.743 52.2412 151.318 52.4713 151.893 52.6438C152.411 52.8164 152.928 52.8164 153.446 52.7013C153.561 52.6438 153.561 52.5863 153.561 52.4713L153.388 52.0686L153.331 51.9536L152.871 50.8033C153.906 51.551 155.114 51.8961 156.379 52.0111C157.185 52.0686 158.047 51.9536 158.795 51.666C158.968 51.6085 159.198 51.4935 159.255 51.3209C159.37 51.1484 159.255 50.9758 159.198 50.8033L158.968 49.9405L158.91 49.768C159.428 50.1131 159.945 50.3431 160.578 50.3431C161.268 50.3431 162.016 50.0555 162.419 49.4804L162.591 49.4228C162.304 46.8858 161.705 44.3938 160.808 42.0031C160.419 40.9651 159.938 39.9641 159.37 39.0122L159.255 38.6671C159.255 37.8044 159.14 36.8266 158.623 36.1364C159.025 35.5037 159.083 34.6984 159.14 34.0082C159.14 33.433 159.14 32.8579 158.853 32.3402L159.083 32.2827L159.543 32.2252C159.658 32.1677 159.715 31.9951 159.773 31.8801C160.158 30.2816 160.737 28.7363 161.498 27.2787L161.901 26.4734C162.016 26.3009 162.016 26.1283 162.074 25.8983V25.6682L161.959 24.863L161.901 24.3453L163.051 24.6904H163.627C166.534 24.19 169.498 24.1125 172.427 24.4603L172.829 24.5754L173.117 24.6904C173.232 24.6904 173.405 24.6329 173.462 24.5179C173.635 24.3453 173.692 24.1152 173.75 23.8852L173.922 24.0002L174.44 24.4028L174.842 24.6329C175.108 24.6825 175.378 24.7018 175.648 24.6904L176.568 25.6107L176.625 25.6682C177.838 27.0541 178.88 28.5795 179.731 30.2121C179.961 30.3846 180.249 30.2696 180.364 30.0395C180.767 29.1192 180.824 28.0839 180.652 27.1061C180.332 25.6456 179.569 24.3196 178.466 23.31C178.121 22.9074 177.661 22.5623 177.201 22.2172L174.785 20.9518C173.577 20.4341 172.312 20.0315 171.046 19.8014C169.608 19.5138 168.17 19.5138 166.675 19.5714C167.308 18.9387 167.48 18.0759 167.48 17.2132C167.48 16.4654 167.193 15.7752 166.79 15.1425ZM151.951 25.3806C152.641 24.5754 153.331 23.7701 153.849 22.7923L152.928 23.7701C152.353 24.2878 151.72 24.6329 151.088 25.0355L150.455 25.4381L150.283 25.4956C149.535 25.9558 148.73 26.4734 148.097 27.0486C146.832 28.1414 145.969 29.6369 145.566 31.2474C145.394 32.1101 145.279 33.0304 145.509 33.8932C145.854 32.8579 146.371 31.8226 146.947 30.9023C147.694 29.7519 148.615 28.6591 149.592 27.6813L150.685 26.5885L151.951 25.3806Z" fill="#262626"/>
<path d="M168.458 20.3781C170.068 20.4356 171.679 20.7232 173.289 21.2408C175.541 21.8764 177.546 23.18 179.041 24.9794C180.134 26.4174 180.824 28.1429 181.054 29.9259C181.365 31.8474 181.403 33.8029 181.169 35.7352L180.882 37.6908L180.652 38.8411C180.594 38.9562 180.594 38.9562 180.479 38.9562C180.364 38.7261 180.364 38.496 180.364 38.2659C180.306 37.4032 180.421 36.5979 180.479 35.7352C180.536 34.3548 180.652 32.9744 180.536 31.5939L180.191 29.0057C179.789 27.3952 179.041 25.8997 177.891 24.6919C176.855 23.6566 175.59 22.7938 174.267 22.2186C173.002 21.701 171.736 21.3559 170.413 21.1258C169.378 20.9532 168.343 20.8957 167.308 20.8957C164.755 20.8539 162.23 21.426 159.945 22.5637C159.198 23.0814 158.507 23.7141 157.932 24.4043C156.162 26.7275 155.068 29.494 154.769 32.3992C154.711 33.7796 154.769 35.1025 155.229 36.4254L155.632 37.2882L156.322 37.3457L156.379 37.5182C156.207 37.6333 155.977 37.6333 155.747 37.6908C155.171 37.8058 154.596 38.0359 154.079 38.381C153.676 38.6686 153.273 39.0137 153.043 39.4738C152.756 40.049 152.871 40.7392 152.986 41.3719C153.273 42.4647 153.964 43.5 154.884 44.1902C155.516 44.7079 156.322 44.9955 157.127 45.1105C157.702 45.2255 158.277 45.1105 158.852 45.053C159.14 45.2831 159.313 45.7432 159.485 46.0308L160.52 47.5838C161.456 48.9136 162.783 49.9189 164.317 50.4596C165.582 50.9773 166.905 51.2649 168.228 51.5524L170.586 52.0126L171.564 52.3002V52.5302H170.874C169.581 52.4581 168.294 52.3044 167.02 52.0701C165.309 51.7297 163.673 51.0869 162.188 50.172C161.556 49.7694 160.981 49.2518 160.52 48.6191C160.919 51.0164 160.599 53.478 159.6 55.6937C158.737 57.2467 157.3 58.4545 155.574 58.9722C155.401 59.0297 155.171 59.0872 154.999 59.0297C154.884 59.0297 154.884 58.9722 154.884 58.8571C154.941 58.6846 155.114 58.5696 155.229 58.512C155.919 58.0519 156.724 57.7068 157.415 57.1891C158.162 56.5564 158.795 55.8662 159.198 55.0035C159.543 54.1407 159.773 53.1629 159.888 52.1851C160.003 51.4374 160.06 50.6897 160.003 49.8844L159.773 47.6988L158.737 45.6282L157.645 45.8582C156.8 45.8828 155.963 45.6957 155.21 45.3139C154.456 44.9322 153.81 44.3679 153.331 43.6726C152.581 42.7227 152.176 41.5467 152.18 40.3366C152.18 39.8189 152.353 39.3013 152.641 38.8986C152.928 38.496 153.331 38.1509 153.733 37.9208C154.021 37.6908 154.424 37.5757 154.769 37.4607L154.251 36.0803C153.964 34.8149 153.964 33.492 154.136 32.2266C154.513 29.0857 155.769 26.115 157.76 23.6566C158.277 23.0814 158.795 22.5637 159.428 22.1611C159.83 21.931 160.233 21.8735 160.578 21.6434C163.051 20.5506 165.755 20.2055 168.458 20.3781Z" fill="#262626"/>
<path d="M167.307 20.8942C169.697 20.8053 172.076 21.2575 174.266 22.2171C175.589 22.7922 176.855 23.655 177.89 24.6903C179.04 25.8982 179.788 27.3936 180.191 29.0041L180.536 31.5924C180.651 32.9728 180.536 34.3532 180.478 35.7336C180.421 36.5964 180.306 37.4016 180.363 38.2644C180.363 38.4944 180.363 38.7245 180.478 38.9546L180.421 40.1049C180.306 40.3925 180.306 40.6801 180.306 41.0252C180.191 42.4056 180.191 43.8436 179.961 45.2815C179.903 45.9717 179.788 46.7194 179.501 47.3521C179.328 47.8698 179.04 48.3299 178.638 48.7325C177.948 49.4803 177.085 50.1129 176.165 50.6306C175.072 51.2633 173.921 51.5509 172.829 52.011C172.541 52.126 172.253 52.2411 172.081 52.4712C172.541 52.5287 172.944 52.4712 173.404 52.3561C173.116 53.0463 173.059 53.7365 173.059 54.4267C173.059 54.7143 173.001 55.0594 173.116 55.347C173.289 55.6346 173.576 55.8647 173.864 56.0372L175.877 56.785C177.142 57.2451 178.35 57.8203 179.616 58.3379C179.731 58.568 179.903 58.7405 179.961 59.0281C180.306 59.6608 180.363 60.351 180.133 61.0412C179.846 61.789 179.27 62.4216 178.58 62.8243C177.66 63.457 176.51 63.9171 175.417 64.2047C170.945 65.1602 166.308 65.0221 161.9 63.8021C160.75 63.3994 159.6 62.9968 158.564 62.4216C157.759 61.9615 156.896 61.3863 156.264 60.6386C155.918 60.1785 155.631 59.5458 155.573 58.9706C156.92 58.5595 158.112 57.7527 158.994 56.6552C159.876 55.5576 160.408 54.22 160.52 52.8163C160.75 51.4358 160.75 49.9979 160.52 48.6175C160.98 49.2502 161.555 49.7678 162.188 50.1705L163.741 50.9757C165.996 51.9485 168.418 52.4759 170.873 52.5287H171.563V52.2986L170.585 52.011L168.227 51.5509C166.904 51.2633 165.581 50.9757 164.316 50.458C163.568 50.1129 162.763 49.7103 162.073 49.2502C161.498 48.7325 160.98 48.2149 160.52 47.5822L159.484 46.0292C159.312 45.7416 159.139 45.2815 158.852 45.0514C158.277 45.1089 157.701 45.224 157.126 45.1089C156.321 44.9939 155.516 44.7063 154.883 44.1887C153.964 43.4776 153.298 42.4893 152.985 41.3703C152.87 40.7376 152.755 40.0474 153.043 39.4722C153.273 39.0121 153.675 38.667 154.078 38.3794C154.596 38.0343 155.171 37.8042 155.746 37.6892C155.976 37.6317 156.206 37.6317 156.379 37.5167L156.321 37.3441L155.631 37.2866L155.228 36.4238C154.768 35.1009 154.711 33.778 154.826 32.3976C155.108 29.4981 156.182 26.7322 157.932 24.4027C158.507 23.7125 159.197 23.0798 159.945 22.5622C162.225 21.4045 164.75 20.8127 167.307 20.8366V20.8942Z" fill="#FFDECC"/>
<path d="M154.942 39.7578C155.172 39.7578 155.345 39.7578 155.575 39.8728C155.862 39.9304 156.208 40.1029 156.38 40.333C156.495 40.5055 156.495 40.7356 156.38 40.9082C156.092 41.2533 155.69 41.4833 155.46 41.8284C155.805 42.0585 156.265 42.1735 156.668 42.3461C156.898 42.4036 157.128 42.5186 157.3 42.6912L157.358 42.8637L156.898 42.7487L155.517 42.3461C155.287 42.2886 155.057 42.1735 155 41.9435C154.942 41.7709 155.057 41.5408 155.172 41.3683L156.035 40.6206C155.805 40.218 155.172 40.1604 154.942 39.7578ZM180.422 40.1029L180.537 40.2755L180.652 41.1957C180.772 42.902 180.733 44.6156 180.537 46.3148C180.422 46.9475 180.25 47.6377 179.962 48.2129C178.436 50.2095 176.293 51.6453 173.865 52.2966C173.808 53.1018 173.693 54.0796 173.75 54.9999L174.038 55.2875C174.498 55.6326 175.073 55.8051 175.591 55.9777C176.936 56.4072 178.244 56.9458 179.502 57.5882C179.905 57.8182 180.25 58.1058 180.537 58.4509C180.25 58.5085 179.962 58.3934 179.617 58.3359C178.352 57.8182 177.144 57.2431 175.878 56.7829L173.865 56.0352C173.578 55.8627 173.29 55.6326 173.118 55.345C173.003 55.0574 173.06 54.7123 173.06 54.4247C173.06 53.7345 173.118 53.0443 173.405 52.3541C172.945 52.4691 172.542 52.5267 172.082 52.4691C172.255 52.2391 172.542 52.124 172.83 52.009C173.923 51.5489 175.073 51.2613 176.166 50.6286C177.086 50.1109 177.949 49.4782 178.639 48.7305C179.042 48.3279 179.329 47.8678 179.502 47.3501C179.79 46.7174 179.905 45.9697 179.962 45.2795C180.192 43.8415 180.192 42.4036 180.307 41.0232C180.307 40.6781 180.307 40.3905 180.422 40.1029Z" fill="#262626"/>
<path d="M178.466 34.1238C178.926 34.0662 179.386 34.1813 179.731 34.4689C179.903 34.6414 180.076 34.8715 180.076 35.1015C180.134 35.3891 179.846 35.6767 179.558 35.6767C179.328 35.6192 179.213 35.5042 179.098 35.3316L178.523 34.929C179.041 35.8493 178.753 37.1147 177.948 37.7473C177.545 38.0924 176.913 38.2075 176.51 37.8049C176.165 37.5173 176.05 37.1147 176.05 36.6545C175.935 36.9421 175.762 37.1722 175.705 37.4598C175.647 37.5748 175.647 37.6898 175.532 37.6898C175.417 37.4022 175.475 37.0571 175.59 36.712C175.935 35.7918 176.567 34.9865 177.43 34.5264C177.718 34.2963 178.063 34.1813 178.466 34.1238ZM166.272 34.7564C167.825 34.814 169.32 35.7918 169.953 37.1722C170.068 37.2872 170.183 37.5173 170.011 37.6898C169.838 37.6898 169.723 37.4598 169.608 37.3447C169.378 36.8846 169.033 36.5395 168.63 36.2519C168.745 36.8846 168.745 37.4598 168.4 38.0349C168.112 38.4951 167.48 38.7827 166.962 38.7251C166.559 38.6101 166.157 38.4376 165.869 38.0924C165.524 37.7473 165.409 37.1722 165.409 36.712C165.409 36.3094 165.582 35.9643 165.754 35.6767C164.949 35.8493 164.144 36.1944 163.511 36.712C163.339 36.7696 163.223 36.8846 163.051 36.8846C162.821 36.8271 162.706 36.6545 162.706 36.4244C162.706 36.2519 162.821 36.0793 162.936 35.9643C163.396 35.6192 163.856 35.2741 164.431 35.044C165.007 34.814 165.639 34.6989 166.272 34.7564Z" fill="#262626"/>
<path d="M166.848 28.6003C167.711 28.6578 168.689 28.8879 169.379 29.463C169.609 29.6356 169.839 29.8657 169.897 30.0957C169.954 30.2683 169.954 30.3833 169.782 30.4408C169.609 30.4408 169.437 30.2683 169.322 30.1532C168.689 29.6931 167.941 29.4055 167.136 29.4055C166.676 29.4055 166.273 29.5206 165.813 29.6356C164.95 29.8081 164.145 30.2683 163.627 30.9585C163.455 31.131 163.34 31.3611 163.052 31.4186C162.765 31.4761 162.477 31.2461 162.477 30.9585C162.419 30.7284 162.592 30.4984 162.707 30.3258C163.397 29.463 164.433 28.8879 165.525 28.6578C165.928 28.5428 166.388 28.5428 166.848 28.6003ZM178.639 29.1755C178.927 29.2905 179.215 29.5781 179.387 29.8081C179.56 29.9807 179.675 30.2108 179.675 30.4408C179.675 30.7859 179.33 31.016 178.984 30.901C178.697 30.7859 178.639 30.4984 178.409 30.2683C178.179 30.0957 177.892 29.8657 177.662 29.8081C176.971 29.5781 176.281 29.8657 175.821 30.3258L175.303 30.8435C175.303 30.4408 175.533 30.0957 175.821 29.8657C176.511 29.1179 177.662 28.8303 178.639 29.1755Z" fill="#262626"/>
<path d="M174.9 41.7734C174.9 41.946 174.785 42.1185 174.67 42.2911C174.44 42.6362 174.037 42.8663 173.634 42.9813C173.347 43.0388 173.117 42.8663 172.887 42.9813C172.657 42.9813 172.426 43.0388 172.196 42.9238C172.081 42.8663 172.081 42.6937 172.196 42.5787C172.369 42.3486 172.657 42.1761 172.887 42.1761C173.117 42.1185 173.289 42.1185 173.462 42.2911L173.519 42.6937C173.807 42.5787 173.922 42.4061 174.152 42.2336L174.9 41.7734Z" fill="#262626"/>
<path d="M167.365 44.875C167.537 44.875 167.652 44.99 167.768 45.1051L168.515 45.5077C169.148 45.7953 169.838 45.9678 170.471 46.1404C171.334 46.428 172.196 46.4855 173.059 46.4855C173.749 46.543 174.382 46.6005 175.015 46.543L175.245 46.658C174.209 47.1757 172.887 47.2907 171.736 47.2332C170.413 47.1757 169.09 46.7731 167.94 46.1979C167.595 45.9678 167.192 45.7378 167.135 45.2776C167.077 45.1051 167.192 44.875 167.365 44.875Z" fill="#262626"/>
<path d="M169.206 19.5746C171.135 19.6849 173.027 20.153 174.785 20.955C175.59 21.3576 176.453 21.7602 177.201 22.2779C177.661 22.5655 178.121 22.9106 178.466 23.3132L179.731 24.7511C179.214 24.9812 178.696 24.9237 178.178 24.8662C177.201 24.7511 176.223 24.6361 175.245 24.6936L174.785 24.6361L174.382 24.3485L173.692 23.8884C173.692 24.1184 173.635 24.291 173.52 24.5211C173.404 24.6361 173.289 24.6936 173.117 24.6936C172.887 24.6361 172.714 24.5211 172.484 24.5211C169.523 24.0847 166.511 24.143 163.569 24.6936H162.936L161.901 24.3485C161.959 24.8662 162.131 25.3838 162.074 25.844C162.016 26.074 162.016 26.3041 161.901 26.4766C161.498 27.2819 161.038 28.0296 160.693 28.8924C160.291 29.8702 159.945 30.9055 159.715 31.9408C159.715 32.0558 159.658 32.1709 159.543 32.2284L158.853 32.3434C159.14 32.8611 159.198 33.4938 159.14 34.0689C159.083 34.7591 158.968 35.5644 158.623 36.1395C159.025 36.6572 159.198 37.3474 159.198 38.0376C159.255 39.1304 159.198 40.1658 158.795 41.2011C158.68 41.4311 158.508 41.7187 158.22 41.8338C158.162 41.8913 157.99 41.8913 157.99 41.7762C157.875 41.5462 157.875 41.2586 157.817 41.0285C157.702 40.1658 157.3 39.3605 156.667 38.7278C156.207 38.3252 155.689 37.9226 155.172 37.635C154.826 37.52 154.539 37.4049 154.251 37.1749L153.906 36.7147C153.216 34.8742 152.986 32.8611 153.216 30.9055C153.46 28.6135 154.186 26.3988 155.344 24.406C155.919 23.4857 156.609 22.6805 157.357 21.9328C157.932 21.4151 158.508 20.955 159.14 20.6099L159.945 20.3223L161.786 19.6896L162.879 19.5746H165.352C166.675 19.5746 167.883 19.4595 169.206 19.5746Z" fill="#262626"/>
</g>
<path d="M112.29 119.24C111.266 119.24 110.362 119.048 109.578 118.664C108.81 118.264 108.17 117.728 107.658 117.056L109.866 114.944C110.154 115.36 110.498 115.68 110.898 115.904C111.314 116.112 111.77 116.216 112.266 116.216C112.762 116.216 113.194 116.112 113.562 115.904C113.946 115.696 114.234 115.392 114.426 114.992C114.634 114.592 114.738 114.104 114.738 113.528V102.128H118.026V113.336C118.026 114.52 117.786 115.56 117.306 116.456C116.842 117.336 116.178 118.024 115.314 118.52C114.466 119 113.458 119.24 112.29 119.24ZM126.443 119.24C125.227 119.24 124.147 118.984 123.203 118.472C122.259 117.944 121.507 117.224 120.947 116.312C120.403 115.4 120.131 114.36 120.131 113.192C120.131 112.04 120.395 111.016 120.923 110.12C121.467 109.208 122.203 108.488 123.131 107.96C124.059 107.416 125.091 107.144 126.227 107.144C127.347 107.144 128.331 107.4 129.179 107.912C130.043 108.408 130.715 109.096 131.195 109.976C131.691 110.84 131.939 111.824 131.939 112.928C131.939 113.136 131.923 113.352 131.891 113.576C131.875 113.784 131.835 114.024 131.771 114.296L122.027 114.32V111.968L130.307 111.944L129.035 112.928C129.003 112.24 128.875 111.664 128.651 111.2C128.443 110.736 128.131 110.384 127.715 110.144C127.315 109.888 126.819 109.76 126.227 109.76C125.603 109.76 125.059 109.904 124.595 110.192C124.131 110.464 123.771 110.856 123.515 111.368C123.275 111.864 123.155 112.456 123.155 113.144C123.155 113.848 123.283 114.464 123.539 114.992C123.811 115.504 124.195 115.904 124.691 116.192C125.187 116.464 125.763 116.6 126.419 116.6C127.011 116.6 127.547 116.504 128.027 116.312C128.507 116.104 128.923 115.8 129.275 115.4L131.123 117.248C130.563 117.904 129.875 118.4 129.059 118.736C128.259 119.072 127.387 119.24 126.443 119.24ZM141.683 119V112.352C141.683 111.664 141.467 111.104 141.035 110.672C140.603 110.24 140.043 110.024 139.355 110.024C138.907 110.024 138.507 110.12 138.155 110.312C137.803 110.504 137.523 110.776 137.315 111.128C137.123 111.48 137.027 111.888 137.027 112.352L135.803 111.728C135.803 110.816 135.995 110.024 136.379 109.352C136.779 108.664 137.323 108.128 138.011 107.744C138.715 107.36 139.507 107.168 140.387 107.168C141.235 107.168 141.995 107.384 142.667 107.816C143.339 108.232 143.867 108.784 144.251 109.472C144.635 110.144 144.827 110.872 144.827 111.656V119H141.683ZM133.883 119V107.408H137.027V119H133.883ZM155.159 119V112.352C155.159 111.664 154.943 111.104 154.511 110.672C154.079 110.24 153.519 110.024 152.831 110.024C152.383 110.024 151.983 110.12 151.631 110.312C151.279 110.504 150.999 110.776 150.791 111.128C150.599 111.48 150.503 111.888 150.503 112.352L149.279 111.728C149.279 110.816 149.471 110.024 149.855 109.352C150.255 108.664 150.799 108.128 151.487 107.744C152.191 107.36 152.983 107.168 153.863 107.168C154.711 107.168 155.471 107.384 156.143 107.816C156.815 108.232 157.343 108.784 157.727 109.472C158.111 110.144 158.303 110.872 158.303 111.656V119H155.159ZM147.359 119V107.408H150.503V119H147.359ZM160.836 119V107.408H164.004V119H160.836ZM162.42 105.536C161.908 105.536 161.484 105.368 161.148 105.032C160.812 104.68 160.644 104.248 160.644 103.736C160.644 103.24 160.812 102.816 161.148 102.464C161.484 102.112 161.908 101.936 162.42 101.936C162.948 101.936 163.372 102.112 163.692 102.464C164.028 102.816 164.196 103.24 164.196 103.736C164.196 104.248 164.028 104.68 163.692 105.032C163.372 105.368 162.948 105.536 162.42 105.536ZM168.325 119V106.16C168.325 105.232 168.525 104.416 168.925 103.712C169.325 102.992 169.893 102.424 170.629 102.008C171.365 101.592 172.229 101.384 173.221 101.384C173.973 101.384 174.621 101.512 175.165 101.768C175.709 102.024 176.197 102.376 176.629 102.824L174.637 104.84C174.461 104.664 174.269 104.528 174.061 104.432C173.853 104.336 173.589 104.288 173.269 104.288C172.693 104.288 172.245 104.448 171.925 104.768C171.621 105.072 171.469 105.512 171.469 106.088V119H168.325ZM165.637 110.168V107.408H174.901V110.168H165.637ZM181.849 119.24C180.633 119.24 179.553 118.984 178.609 118.472C177.665 117.944 176.913 117.224 176.353 116.312C175.809 115.4 175.537 114.36 175.537 113.192C175.537 112.04 175.801 111.016 176.329 110.12C176.873 109.208 177.609 108.488 178.537 107.96C179.465 107.416 180.497 107.144 181.633 107.144C182.753 107.144 183.737 107.4 184.585 107.912C185.449 108.408 186.121 109.096 186.601 109.976C187.097 110.84 187.345 111.824 187.345 112.928C187.345 113.136 187.329 113.352 187.297 113.576C187.281 113.784 187.241 114.024 187.177 114.296L177.433 114.32V111.968L185.713 111.944L184.441 112.928C184.409 112.24 184.281 111.664 184.057 111.2C183.849 110.736 183.537 110.384 183.121 110.144C182.721 109.888 182.225 109.76 181.633 109.76C181.009 109.76 180.465 109.904 180.001 110.192C179.537 110.464 179.177 110.856 178.921 111.368C178.681 111.864 178.561 112.456 178.561 113.144C178.561 113.848 178.689 114.464 178.945 114.992C179.217 115.504 179.601 115.904 180.097 116.192C180.593 116.464 181.169 116.6 181.825 116.6C182.417 116.6 182.953 116.504 183.433 116.312C183.913 116.104 184.329 115.8 184.681 115.4L186.529 117.248C185.969 117.904 185.281 118.4 184.465 118.736C183.665 119.072 182.793 119.24 181.849 119.24ZM189.289 119V107.408H192.433V119H189.289ZM192.433 112.592L191.209 111.776C191.353 110.352 191.769 109.232 192.457 108.416C193.145 107.584 194.137 107.168 195.433 107.168C195.993 107.168 196.497 107.264 196.945 107.456C197.393 107.632 197.801 107.928 198.169 108.344L196.201 110.6C196.025 110.408 195.809 110.264 195.553 110.168C195.313 110.072 195.033 110.024 194.713 110.024C194.041 110.024 193.489 110.24 193.057 110.672C192.641 111.088 192.433 111.728 192.433 112.592ZM207.119 119V116.336H211.511C212.295 116.336 212.903 116.096 213.335 115.616C213.783 115.136 214.007 114.568 214.007 113.912C214.007 113.464 213.911 113.056 213.719 112.688C213.527 112.32 213.239 112.032 212.855 111.824C212.487 111.6 212.039 111.488 211.511 111.488H207.119V108.848H211.151C211.823 108.848 212.359 108.68 212.759 108.344C213.175 108.008 213.383 107.504 213.383 106.832C213.383 106.144 213.175 105.632 212.759 105.296C212.359 104.96 211.823 104.792 211.151 104.792H207.119V102.128H211.535C212.655 102.128 213.591 102.336 214.343 102.752C215.111 103.152 215.687 103.688 216.071 104.36C216.455 105.016 216.647 105.736 216.647 106.52C216.647 107.48 216.351 108.312 215.759 109.016C215.183 109.704 214.335 110.216 213.215 110.552L213.359 109.496C214.607 109.848 215.567 110.432 216.239 111.248C216.927 112.048 217.271 113.016 217.271 114.152C217.271 115.048 217.047 115.864 216.599 116.6C216.167 117.32 215.527 117.904 214.679 118.352C213.847 118.784 212.831 119 211.631 119H207.119ZM204.719 119V102.128H207.959V119H204.719Z" fill="#333333"/>
</svg>
