<svg width="326" height="128" viewBox="0 0 326 128" fill="none" xmlns="http://www.w3.org/2000/svg">
<rect x="123.833" y="0.5" width="79" height="79" rx="39.5" fill="#FFF5F0"/>
<rect x="123.833" y="0.5" width="79" height="79" rx="39.5" stroke="#333333"/>
<mask id="mask0_57_7011" style="mask-type:luminance" maskUnits="userSpaceOnUse" x="135" y="11" width="57" height="58">
<path d="M191.572 11.875H135.205V68.242H191.572V11.875Z" fill="white"/>
</mask>
<g mask="url(#mask0_57_7011)">
<path d="M166.112 20.4046C168.47 20.7497 170.714 21.67 172.612 23.1079C174.222 24.3158 175.487 25.9262 176.35 27.7668C177.098 29.3773 177.501 31.2178 177.443 33.0009C177.386 33.8636 177.271 34.7264 176.983 35.5316H176.868L176.925 34.3238C176.983 32.5982 176.81 30.9302 176.178 29.3198C175.603 27.5942 174.567 26.0413 173.302 24.7759C170.886 22.4752 167.665 21.2098 164.329 21.1523C162.159 21.1164 160.011 21.5863 158.054 22.5248C156.097 23.4632 154.386 24.8444 153.056 26.5589C151.352 28.8605 150.536 31.6989 150.755 34.5538L150.87 35.9918C151.33 35.9918 151.963 35.9918 152.308 36.3944L152.135 36.5669L151.158 36.6245C150.467 36.682 149.777 36.912 149.26 37.3722C148.687 37.9865 148.342 38.778 148.282 39.6154C147.994 41.4559 148.972 43.354 150.525 44.3893C151.445 44.9645 152.596 45.2521 153.688 44.9069C153.918 44.7919 154.206 44.6194 154.494 44.7344C154.666 44.7919 154.724 44.9645 154.781 45.137C155.951 47.4896 157.741 49.4783 159.958 50.8887C160.418 51.2914 160.993 51.6365 161.568 51.9241C162.604 52.3842 163.754 52.7293 164.847 53.0169L166.687 53.477C166.975 53.5345 167.205 53.5345 167.435 53.6496L167.205 53.7071C165.767 53.8221 164.444 53.5345 163.064 53.1319C162.374 52.9594 161.741 52.7293 161.108 52.4417C159.301 51.5212 157.666 50.2953 156.277 48.8181L156.392 50.4286C156.449 51.4064 156.392 52.4417 156.047 53.4195C155.817 54.1097 155.414 54.7999 154.954 55.3751C154.379 55.9503 153.688 56.4679 152.998 56.8705C152.423 57.2732 151.79 57.6758 151.158 57.9059L150.237 58.1934L150.755 57.6758L152.538 56.5254L153.803 55.5477C154.774 54.7215 155.425 53.5821 155.644 52.3267C155.759 51.5214 155.759 50.7162 155.759 49.8534V48.3005C155.184 47.4952 154.494 46.6325 154.206 45.6547C153.228 46.1148 152.02 46.0573 151.043 45.5972C150.065 45.1945 149.202 44.5043 148.569 43.6991C147.879 42.7213 147.477 41.6285 147.362 40.4781C147.246 39.3278 147.477 38.1774 148.224 37.2571C148.742 36.682 149.49 36.2218 150.237 36.0493C150.007 35.244 149.892 34.3813 149.892 33.5185C149.94 31.6168 150.39 29.7466 151.212 28.0314C152.035 26.3163 153.212 24.795 154.666 23.568C156.237 22.2528 158.071 21.2898 160.046 20.7441C162.02 20.1984 164.089 20.0826 166.112 20.4046Z" fill="#262626"/>
<path d="M173.301 24.7817C174.567 26.0471 175.602 27.6001 176.177 29.3256C176.81 30.9361 176.983 32.6041 176.925 34.3296L176.868 35.5375L176.58 36.4002L176.465 37.148L176.58 40.3689C176.58 41.5768 176.637 42.7847 176.522 43.9925L176.35 46.6958C176.235 47.6161 175.947 48.4789 175.545 49.2841C174.912 50.3194 174.049 51.1822 173.014 51.8149C172.266 52.275 171.461 52.5051 170.656 52.7352L168.47 53.3679L167.492 53.5404C167.492 53.5979 167.55 53.6554 167.665 53.6554C168.125 53.943 168.643 53.943 169.16 53.8855C168.988 54.2881 168.93 54.6908 169.045 55.1509C169.218 55.5535 169.678 55.7836 170.023 55.9561C170.713 56.3012 171.403 56.3588 172.094 56.4738C172.496 56.8189 172.899 57.279 173.014 57.8542C173.129 58.3143 173.129 58.7745 172.899 59.1771C172.611 59.7523 172.094 60.2124 171.518 60.5C170.771 60.9601 169.965 61.3052 169.103 61.5353C164.903 62.5405 160.524 62.5208 156.334 61.4778C155.356 61.2477 154.436 60.9601 153.573 60.5C152.883 60.1549 152.25 59.7523 151.732 59.2346C151.445 58.832 151.215 58.4294 151.157 57.9117C151.79 57.6817 152.423 57.279 152.998 56.8764C153.688 56.4738 154.378 55.9561 154.953 55.381C155.414 54.8058 155.816 54.1156 156.046 53.4254C156.391 52.4476 156.449 51.4123 156.391 50.4345L156.276 48.824L157.542 50.1469C158.635 51.0096 159.842 51.8724 161.108 52.4476C161.74 52.7352 162.373 52.9652 163.063 53.1378C164.444 53.5404 165.767 53.828 167.205 53.713L167.435 53.6554C167.205 53.5404 166.975 53.5404 166.687 53.4829L164.846 53.0228C163.754 52.7352 162.603 52.3901 161.568 51.9299L159.9 50.9521C159.267 50.4345 158.577 49.9743 158.002 49.3992C156.673 48.1929 155.581 46.7495 154.781 45.1429C154.723 44.9703 154.666 44.7978 154.493 44.7403C154.206 44.6252 153.918 44.7978 153.688 44.9128C152.595 45.2579 151.445 44.9703 150.525 44.3952C149.748 43.8825 149.128 43.1657 148.732 42.3235C148.336 41.4813 148.18 40.5463 148.281 39.6212C148.339 38.816 148.684 38.0107 149.259 37.378C149.777 36.9179 150.467 36.6878 151.157 36.6303L152.135 36.5728L152.308 36.4002C151.963 35.9976 151.33 35.9976 150.87 35.9976L150.755 34.5597C150.535 31.7048 151.352 28.8664 153.055 26.5648C154.386 24.8503 156.097 23.4691 158.054 22.5306C160.011 21.5922 162.159 21.1223 164.329 21.1582C167.665 21.2157 170.886 22.4811 173.301 24.7817Z" fill="#FFDECC"/>
<path d="M176.581 36.3984C176.753 36.3984 176.753 36.6285 176.811 36.7435C176.983 37.3762 177.041 38.0664 177.098 38.6991L177.213 39.907C177.271 41.1724 177.329 42.3802 177.271 43.6456C177.213 44.8535 177.213 46.1764 176.983 47.3842C176.739 48.6367 176.192 49.8104 175.39 50.8029C174.588 51.7954 173.555 52.5766 172.382 53.0785C171.519 53.4811 170.599 53.7111 169.621 53.8262V54.6889C169.679 54.8615 169.794 54.919 169.909 55.034C170.599 55.3791 171.232 55.4942 171.979 55.6667C172.67 55.8393 173.36 55.9543 174.05 56.2994C173.877 56.472 173.647 56.5295 173.417 56.5295C173.015 56.587 172.555 56.472 172.094 56.472C171.404 56.3569 170.714 56.2994 170.024 55.9543C169.679 55.7818 169.219 55.5517 169.046 55.1491C168.931 54.6889 168.989 54.2863 169.161 53.8837C168.643 53.9412 168.126 53.9412 167.666 53.6536C167.551 53.6536 167.493 53.5961 167.493 53.5386L168.471 53.366L170.657 52.7334C171.462 52.5033 172.267 52.2732 173.015 51.8131C174.05 51.1804 174.913 50.3176 175.545 49.2823C175.948 48.4771 176.236 47.6143 176.351 46.694L176.523 43.9907C176.638 42.7829 176.581 41.575 176.581 40.3671L176.466 37.1462L176.581 36.3984ZM150.238 37.9514C150.698 37.9514 151.216 38.0089 151.561 38.354C151.848 38.5841 152.136 38.8717 152.251 39.2168C152.308 39.3893 152.251 39.5619 152.136 39.6769L151.388 40.1371C150.986 40.4822 150.986 41.2299 151.388 41.575C151.733 41.8626 152.193 42.0351 152.596 42.2077C152.711 42.2077 152.884 42.2652 152.941 42.3802C152.884 42.4953 152.769 42.5528 152.654 42.5528C152.078 42.5528 151.503 42.3802 151.043 42.0351C150.756 41.8626 150.583 41.575 150.525 41.2874C150.41 40.8273 150.41 40.3096 150.756 39.907C150.986 39.5619 151.388 39.3893 151.791 39.2168C151.561 38.9292 151.388 38.5841 150.986 38.4691C150.583 38.2965 150.123 38.2965 149.72 38.1815L150.238 37.9514Z" fill="#262626"/>
<path d="M175.027 34.2734C175.257 34.2734 175.487 34.2734 175.602 34.446C175.832 34.6185 175.832 35.0212 175.544 35.1937C175.372 35.3087 175.199 35.3087 174.969 35.3087L173.934 35.5388C173.934 35.9414 173.876 36.4016 173.704 36.8042C173.589 37.0918 173.359 37.3219 173.129 37.4944C172.784 37.667 172.381 37.5519 172.151 37.2643L171.978 36.8042C171.806 36.9768 171.691 37.1493 171.461 37.2643C171.288 37.3219 171.231 37.2643 171.231 37.0918C171.288 36.7467 171.461 36.4591 171.691 36.229C172.296 35.3902 173.137 34.7498 174.107 34.3885L175.027 34.2734ZM161.108 35.0787C161.74 35.0787 162.315 35.1937 162.891 35.3087C163.696 35.5388 164.501 35.7689 165.191 36.3441C165.364 36.5166 165.651 36.6892 165.709 36.9192C165.709 37.0343 165.709 37.0918 165.594 37.0918L164.961 36.8042C164.386 36.5166 163.696 36.3441 163.006 36.229C162.891 36.7467 162.776 37.2643 162.431 37.7245C162.2 37.9545 161.913 38.0696 161.568 38.0696C161.108 38.0121 160.647 37.782 160.36 37.4369C160.072 37.0343 160.015 36.6316 159.957 36.114L159.152 36.3441C158.979 36.4016 158.807 36.4591 158.634 36.4016C158.347 36.3441 158.232 36.0565 158.289 35.7689C158.347 35.5388 158.577 35.4238 158.807 35.3663C159.497 35.0787 160.36 35.0212 161.108 35.0787Z" fill="#262626"/>
<path d="M163.294 28.5791C164.214 28.6366 165.192 28.9817 165.94 29.5569C166.112 29.7294 166.342 29.8444 166.4 30.0745C166.458 30.1895 166.342 30.3621 166.227 30.3046C165.767 30.2471 165.365 30.017 164.905 29.902C164.502 29.7294 164.042 29.6144 163.582 29.6144C163.179 29.5569 162.719 29.6144 162.316 29.6719C161.454 29.7869 160.591 30.1895 159.843 30.5922L158.635 31.1098L158.578 31.0523C158.635 30.8222 158.75 30.5346 158.923 30.3621C159.268 29.7869 159.901 29.4418 160.476 29.1542C161.338 28.7516 162.316 28.5215 163.294 28.5791ZM174.452 28.8091C174.74 28.9242 175.085 29.0967 175.315 29.3843C175.545 29.6144 175.603 29.902 175.545 30.2471L174.222 29.8444C173.82 29.7294 173.475 29.7869 173.072 29.7294C172.669 29.7294 172.209 29.7869 171.864 30.017L171.116 30.4771H170.944C170.886 30.3046 170.944 30.132 171.059 30.017C171.346 29.4993 171.807 29.1542 172.324 28.9817C173.014 28.7516 173.705 28.6366 174.452 28.8091Z" fill="#262626"/>
<path d="M170.425 41.6328V41.6903C170.195 42.1505 169.793 42.5531 169.275 42.7256C169.102 42.7832 168.872 42.7832 168.757 42.6681V42.4381C169.16 42.1505 169.678 41.9204 170.138 41.7478L170.425 41.6328Z" fill="#262626"/>
<path fill-rule="evenodd" clip-rule="evenodd" d="M162.374 43.6428L161.569 43.4128H161.511C161.396 43.3553 161.223 43.3553 161.166 43.4703C161.108 43.5278 161.166 43.6428 161.223 43.6428L161.569 43.8154L161.684 43.8729C163.006 44.5409 164.421 45.0062 165.882 45.2533C165.882 45.656 165.997 46.0586 166.285 46.4037C166.573 46.8063 166.975 47.1514 167.493 47.324C168.068 47.554 168.701 47.4965 169.276 47.2664C169.851 47.0364 170.311 46.5762 170.541 46.0011C170.656 45.771 170.656 45.4834 170.656 45.2533L171.692 44.9082V44.8507L171.807 44.7357C171.251 44.7303 170.695 44.7303 170.139 44.7357C168.487 44.8794 166.823 44.802 165.192 44.5056L162.949 43.8729L162.834 43.8154L162.374 43.6428ZM166.342 45.3109C166.4 45.886 166.86 46.3462 167.378 46.6337C168.068 47.1514 169.218 46.9213 169.678 46.1736C169.851 45.9435 169.909 45.656 169.966 45.3684V45.3109L168.471 45.4259L168.528 45.4834C168.528 45.656 168.586 45.771 168.471 45.9435C168.356 46.1161 168.126 46.1161 168.068 45.9435C167.953 45.771 167.953 45.5984 168.01 45.4259C167.532 45.3817 167.052 45.3434 166.573 45.3109H166.342Z" fill="#262626"/>
<path d="M160.649 17.9922H162.949C165.768 18.1072 168.528 18.6249 171.232 19.2576C172.842 19.6602 174.338 20.1778 175.776 20.9831C176.523 21.4432 177.329 22.0184 177.904 22.7086C178.594 23.4563 179.054 24.3766 179.227 25.3544C179.457 26.5623 179.457 27.8276 179.054 29.0355C178.767 29.8983 178.249 30.761 177.501 31.3362C176.466 32.199 175.143 32.7741 173.82 32.8317C173.705 32.8892 173.59 32.8317 173.59 32.6591L174.05 31.7388C173.434 32.3429 172.686 32.7957 171.864 33.0617C171.634 33.1192 171.289 33.1768 171.059 33.0617V32.7741C171.059 31.9114 171.002 31.1061 170.772 30.3009C170.599 29.3806 170.139 28.6329 169.736 27.8276C169.851 28.6904 169.794 29.6107 169.621 30.4734C169.449 31.2787 169.104 31.9689 168.528 32.5441C168.413 32.7741 168.126 32.8317 167.896 32.7166L167.781 32.314C167.666 31.6813 167.378 31.1061 167.091 30.531C166.573 29.3806 165.825 28.4028 164.962 27.4825C163.703 26.2235 162.221 25.2093 160.591 24.4916C160.676 26.5025 160.482 28.5155 160.016 30.4734C159.786 31.2787 159.441 32.0839 158.923 32.7741C158.751 33.0042 158.52 33.3493 158.233 33.4643H157.83C157.888 32.7741 157.888 32.0839 157.773 31.3937C157.658 30.761 157.485 30.0708 157.198 29.4956C157.025 30.531 156.45 31.3937 155.76 32.199C155.242 32.6591 154.724 33.1192 154.092 33.4643V37.3755L154.149 39.101C154.149 39.2736 153.977 39.5612 153.804 39.6187C153.516 39.5612 153.286 39.4461 153.056 39.2736C152.366 38.8135 151.733 38.2958 151.158 37.6631C150.214 36.6155 149.493 35.387 149.038 34.0523C148.583 32.7175 148.405 31.3043 148.512 29.8983C148.704 27.4225 149.611 25.0557 151.122 23.0852C152.633 21.1147 154.684 19.6252 157.025 18.7974C158.175 18.3373 159.383 18.0497 160.649 17.9922Z" fill="#262626"/>
</g>
<path d="M126.167 119V102.128H129.431V119H126.167ZM128.567 119V116.12H137.903V119H128.567ZM128.567 111.776V108.992H137.063V111.776H128.567ZM128.567 105.008V102.128H137.783V105.008H128.567ZM140.268 119V107.408H143.412V119H140.268ZM147.828 119V112.16C147.828 111.488 147.612 110.968 147.18 110.6C146.764 110.216 146.244 110.024 145.62 110.024C145.204 110.024 144.828 110.112 144.492 110.288C144.156 110.448 143.892 110.688 143.7 111.008C143.508 111.328 143.412 111.712 143.412 112.16L142.188 111.56C142.188 110.664 142.38 109.888 142.764 109.232C143.164 108.576 143.7 108.072 144.372 107.72C145.044 107.352 145.804 107.168 146.652 107.168C147.452 107.168 148.18 107.352 148.836 107.72C149.492 108.072 150.012 108.576 150.396 109.232C150.78 109.872 150.972 110.648 150.972 111.56V119H147.828ZM155.388 119V112.16C155.388 111.488 155.172 110.968 154.74 110.6C154.324 110.216 153.804 110.024 153.18 110.024C152.78 110.024 152.404 110.112 152.052 110.288C151.716 110.448 151.452 110.688 151.26 111.008C151.068 111.328 150.972 111.712 150.972 112.16L149.172 111.728C149.236 110.8 149.484 110 149.916 109.328C150.348 108.64 150.916 108.112 151.62 107.744C152.324 107.36 153.108 107.168 153.972 107.168C154.836 107.168 155.612 107.352 156.3 107.72C156.988 108.072 157.532 108.584 157.932 109.256C158.332 109.928 158.532 110.728 158.532 111.656V119H155.388ZM161.081 119V107.408H164.249V119H161.081ZM162.665 105.536C162.153 105.536 161.729 105.368 161.393 105.032C161.057 104.68 160.889 104.248 160.889 103.736C160.889 103.24 161.057 102.816 161.393 102.464C161.729 102.112 162.153 101.936 162.665 101.936C163.193 101.936 163.617 102.112 163.937 102.464C164.273 102.816 164.441 103.24 164.441 103.736C164.441 104.248 164.273 104.68 163.937 105.032C163.617 105.368 163.193 105.536 162.665 105.536ZM167.034 119V101.648H170.178V119H167.034ZM176.612 119.096L171.764 107.408H175.172L178.388 116.336H177.236L180.572 107.408H184.004L178.844 119.072L176.612 119.096ZM173.396 123.848L176.924 116.384L178.844 119.072L176.732 123.848H173.396ZM190.62 119V102.128H193.884V119H190.62ZM193.02 119V116.096H201.612V119H193.02Z" fill="#333333"/>
</svg>
