<svg width="34" height="34" viewBox="0 0 34 34" fill="none" xmlns="http://www.w3.org/2000/svg">
<path d="M16.5747 3.97413C16.8459 3.85563 17.1543 3.85563 17.4255 3.97413C22.6938 6.27596 27.6869 9.08983 32.3418 12.3527C32.6787 12.5888 32.849 12.9982 32.779 13.4036C32.709 13.8089 32.4112 14.1375 32.0147 14.2469C31.0444 14.5148 30.0824 14.8032 29.1292 15.1106C25.2602 16.3584 21.5358 17.9284 17.9876 19.7891L17.983 19.7915C17.8221 19.8759 17.6616 19.9609 17.5015 20.0464C17.1886 20.2136 16.8129 20.2136 16.5 20.0464C16.3384 19.96 16.1763 19.8742 16.0139 19.7891C14.2594 18.869 12.4618 18.0201 10.625 17.246V16.9291C10.625 16.743 10.7205 16.5779 10.8683 16.4883C13.0005 15.1966 15.2 14.0046 17.46 12.9191C17.989 12.665 18.2118 12.0302 17.9577 11.5013C17.7037 10.9723 17.0689 10.7495 16.54 11.0036C14.2177 12.119 11.9579 13.3437 9.7672 14.6709C9.12491 15.06 8.69313 15.6968 8.5511 16.4103C7.33996 15.9444 6.1129 15.5105 4.87091 15.11C3.91774 14.8026 2.95579 14.5147 1.98552 14.2469C1.58897 14.1375 1.29124 13.8089 1.22122 13.4035C1.15121 12.9982 1.3215 12.5888 1.65837 12.3527C6.31331 9.08981 11.3064 6.27596 16.5747 3.97413Z" fill="#262626"/>
<path d="M18.5029 21.9207C21.958 20.0746 25.588 18.5139 29.3616 17.27C29.5517 19.2743 29.6732 21.2985 29.7235 23.3402C29.7343 23.7783 29.475 24.1781 29.0706 24.3469C25.0315 26.0332 21.1896 28.0982 17.5892 30.4975C17.2324 30.7353 16.7676 30.7353 16.4108 30.4975C12.8105 28.0982 8.96853 26.0332 4.92943 24.3469C4.52506 24.1781 4.26581 23.7783 4.2766 23.3402C4.32691 21.2984 4.44835 19.274 4.63855 17.2695C5.9433 17.6996 7.23088 18.1675 8.5 18.672V20.4718C7.86484 20.8392 7.4375 21.5259 7.4375 22.3125C7.4375 23.0142 7.77761 23.6364 8.30198 24.0234C8.17516 24.5626 7.98748 25.0903 7.73892 25.5956C8.38024 25.8983 9.01607 26.2107 9.64622 26.5326C10.0051 25.8027 10.2653 25.0366 10.4269 24.2543C11.1697 23.9232 11.6875 23.1783 11.6875 22.3125C11.6875 21.5259 11.2602 20.8392 10.625 20.4718V19.5583C12.2845 20.2834 13.91 21.0719 15.4986 21.9207C16.4372 22.4222 17.5643 22.4222 18.5029 21.9207Z" fill="#262626"/>
<path d="M6.32148 27.5716C6.91525 26.9778 7.38795 26.309 7.73892 25.5956C8.38024 25.8983 9.01607 26.2107 9.64622 26.5326C9.19494 27.4504 8.58732 28.3109 7.82408 29.0742C7.40915 29.4891 6.73641 29.4891 6.32148 29.0742C5.90655 28.6592 5.90655 27.9865 6.32148 27.5716Z" fill="#262626"/>
</svg>
