<svg width="34" height="34" viewBox="0 0 34 34" fill="none" xmlns="http://www.w3.org/2000/svg">
<path fill-rule="evenodd" clip-rule="evenodd" d="M4.25 3.1875C4.8368 3.1875 5.3125 3.6632 5.3125 4.25V5.01418L7.9166 4.36315C11.1154 3.56346 14.4947 3.93442 17.4438 5.40897L17.5964 5.48527C20.0418 6.70801 22.8386 7.03469 25.5001 6.40847L29.9053 5.37194C30.2409 5.29297 30.594 5.38175 30.8523 5.61007C31.1106 5.83838 31.2421 6.17785 31.205 6.52061C30.9456 8.91527 30.8125 11.3481 30.8125 13.8125C30.8125 16.2974 30.9479 18.7503 31.2115 21.1643C31.2698 21.6978 30.9211 22.191 30.3987 22.3139L25.9868 23.352C22.8414 24.0921 19.5362 23.706 16.646 22.2609L16.4934 22.1846C13.998 20.9369 11.1386 20.623 8.43199 21.2997L5.3125 22.0796V29.75C5.3125 30.3368 4.8368 30.8125 4.25 30.8125C3.6632 30.8125 3.1875 30.3368 3.1875 29.75V4.25C3.1875 3.6632 3.6632 3.1875 4.25 3.1875Z" fill="#262626"/>
</svg>
