<svg width="34" height="34" viewBox="0 0 34 34" fill="none" xmlns="http://www.w3.org/2000/svg">
<path d="M17.0056 25.4669C23.6009 25.4669 28.2944 22.9118 28.2944 19.1624V13.6321C28.2944 10.3139 24.3016 8.5 17.0056 8.5C9.69845 8.5 5.7056 10.3139 5.7056 13.6321V19.1624C5.7056 22.9118 10.3991 25.4669 17.0056 25.4669ZM10.9774 14.6054C10.9774 14.1077 11.3889 13.6874 11.9006 13.6874H22.1106C22.6334 13.6874 23.0448 14.1077 23.0448 14.6054C23.0448 15.1142 22.6334 15.5345 22.1106 15.5345H11.9006C11.3889 15.5345 10.9774 15.1142 10.9774 14.6054ZM10.9774 18.8748C10.9774 18.366 11.3889 17.9457 11.9006 17.9457H22.1106C22.6334 17.9457 23.0448 18.366 23.0448 18.8748C23.0448 19.3835 22.6334 19.7927 22.1106 19.7927H11.9006C11.3889 19.7927 10.9774 19.3835 10.9774 18.8748ZM0 15.7668C0 19.3283 2.60256 21.8169 6.50638 21.8169H7.22932V20.0362H6.32843C3.62578 20.0362 1.79065 18.2443 1.79065 15.7668C1.79065 14.539 2.44684 13.7869 3.6369 13.7869H6.77331V12.0062H3.6369C1.33464 12.0062 0 13.4219 0 15.7668ZM34 15.7668C34 13.4219 32.6765 12.0062 30.3631 12.0062H27.2267V13.7869H30.3631C31.5532 13.7869 32.2094 14.539 32.2094 15.7668C32.2094 18.2443 30.3742 20.0362 27.6715 20.0362H26.7707V21.8169H27.5048C31.3974 21.8169 34 19.3283 34 15.7668Z" fill="#262626"/>
</svg>
