<svg width="34" height="34" viewBox="0 0 34 34" fill="none" xmlns="http://www.w3.org/2000/svg">
<path d="M6.48241 23.5115L6.85167 24.9105C7.31939 26.7294 8.34101 27.6621 10.3719 27.6621H23.6282C25.6715 27.6621 26.6807 26.7527 27.1607 24.9105L27.53 23.5115H6.48241ZM6.07624 21.9142H27.9485L30.2625 12.9368L29.2532 12.3888L23.579 16.3062C23.1605 16.5861 22.8774 16.4811 22.6435 16.1663L17.3016 8.51804L16.7108 8.49472L11.3197 16.2013C11.1104 16.5044 10.8643 16.5977 10.4458 16.3179L4.8823 12.4704L3.70068 12.7619L6.07624 21.9142ZM4.1561 15.2685C5.78083 15.2685 7.08553 14.0211 7.08553 12.4704C7.08553 10.9548 5.78083 9.6956 4.1561 9.6956C2.53137 9.6956 1.21436 10.9431 1.21436 12.4704C1.21436 14.0211 2.54367 15.2685 4.1561 15.2685ZM17.0063 10.4185C18.6186 10.4185 19.9356 9.17095 19.9356 7.63195C19.9356 6.11628 18.6186 4.85712 17.0063 4.85712C15.3692 4.85712 14.0645 6.10463 14.0645 7.63195C14.0645 9.17095 15.3815 10.4185 17.0063 10.4185ZM29.844 15.2685C31.4565 15.2685 32.7858 14.0211 32.7858 12.4704C32.7858 10.9431 31.4688 9.6956 29.844 9.6956C28.2317 9.6956 26.9147 10.9548 26.9147 12.4704C26.9147 14.0211 28.2317 15.2685 29.844 15.2685Z" fill="#262626"/>
</svg>
